<mxfile host="app.diagrams.net" modified="2023-09-18T15:47:39.784Z" agent="Mozilla/5.0 (Windows NT 10.0; Win64; x64) AppleWebKit/537.36 (KHTML, like Gecko) Chrome/116.0.0.0 Safari/537.36" etag="TaNau6i9aAEyfTl2z2QB" version="21.7.5" type="device">
  <diagram name="Page-1" id="WvrMzpBZcYzlSUOb_bqn">
    <mxGraphModel dx="882" dy="590" grid="1" gridSize="10" guides="1" tooltips="1" connect="1" arrows="1" fold="1" page="1" pageScale="1" pageWidth="850" pageHeight="1100" math="0" shadow="0">
      <root>
        <mxCell id="0" />
        <mxCell id="1" parent="0" />
        <mxCell id="x-XL8PX8UxAsf5zXWhda-3" style="edgeStyle=orthogonalEdgeStyle;rounded=0;orthogonalLoop=1;jettySize=auto;html=1;exitX=0.5;exitY=1;exitDx=0;exitDy=0;entryX=0.5;entryY=0;entryDx=0;entryDy=0;" edge="1" parent="1" source="2uV-hCsgqKCJBiBY5NLh-1" target="2uV-hCsgqKCJBiBY5NLh-17">
          <mxGeometry relative="1" as="geometry" />
        </mxCell>
        <mxCell id="x-XL8PX8UxAsf5zXWhda-48" style="edgeStyle=orthogonalEdgeStyle;rounded=0;orthogonalLoop=1;jettySize=auto;html=1;exitX=0;exitY=0.25;exitDx=0;exitDy=0;entryX=0.5;entryY=0;entryDx=0;entryDy=0;" edge="1" parent="1" source="2uV-hCsgqKCJBiBY5NLh-1" target="x-XL8PX8UxAsf5zXWhda-47">
          <mxGeometry relative="1" as="geometry" />
        </mxCell>
        <mxCell id="x-XL8PX8UxAsf5zXWhda-50" style="edgeStyle=orthogonalEdgeStyle;rounded=0;orthogonalLoop=1;jettySize=auto;html=1;exitX=1;exitY=0.25;exitDx=0;exitDy=0;entryX=0.5;entryY=0;entryDx=0;entryDy=0;" edge="1" parent="1" source="2uV-hCsgqKCJBiBY5NLh-1" target="2uV-hCsgqKCJBiBY5NLh-6">
          <mxGeometry relative="1" as="geometry" />
        </mxCell>
        <mxCell id="2uV-hCsgqKCJBiBY5NLh-1" value="" style="swimlane;startSize=0;" parent="1" vertex="1">
          <mxGeometry x="320" y="40" width="200" height="200" as="geometry" />
        </mxCell>
        <mxCell id="2uV-hCsgqKCJBiBY5NLh-2" value="Web browser" style="rounded=1;whiteSpace=wrap;html=1;" parent="2uV-hCsgqKCJBiBY5NLh-1" vertex="1">
          <mxGeometry x="40" y="40" width="120" height="40" as="geometry" />
        </mxCell>
        <mxCell id="2uV-hCsgqKCJBiBY5NLh-5" value="Mobile app" style="rounded=1;whiteSpace=wrap;html=1;" parent="2uV-hCsgqKCJBiBY5NLh-1" vertex="1">
          <mxGeometry x="40" y="120" width="120" height="40" as="geometry" />
        </mxCell>
        <mxCell id="2uV-hCsgqKCJBiBY5NLh-4" value="Users" style="text;html=1;strokeColor=none;fillColor=none;align=center;verticalAlign=middle;whiteSpace=wrap;rounded=0;" parent="2uV-hCsgqKCJBiBY5NLh-1" vertex="1">
          <mxGeometry width="60" height="30" as="geometry" />
        </mxCell>
        <mxCell id="x-XL8PX8UxAsf5zXWhda-51" style="edgeStyle=orthogonalEdgeStyle;rounded=0;orthogonalLoop=1;jettySize=auto;html=1;exitX=0.5;exitY=1;exitDx=0;exitDy=0;entryX=1;entryY=0.75;entryDx=0;entryDy=0;" edge="1" parent="1" source="2uV-hCsgqKCJBiBY5NLh-6" target="2uV-hCsgqKCJBiBY5NLh-1">
          <mxGeometry relative="1" as="geometry" />
        </mxCell>
        <mxCell id="2uV-hCsgqKCJBiBY5NLh-6" value="DNS" style="rounded=1;whiteSpace=wrap;html=1;" parent="1" vertex="1">
          <mxGeometry x="640" y="120" width="120" height="60" as="geometry" />
        </mxCell>
        <mxCell id="x-XL8PX8UxAsf5zXWhda-53" style="edgeStyle=orthogonalEdgeStyle;rounded=0;orthogonalLoop=1;jettySize=auto;html=1;exitX=1;exitY=0.5;exitDx=0;exitDy=0;" edge="1" parent="1" source="2uV-hCsgqKCJBiBY5NLh-17">
          <mxGeometry relative="1" as="geometry">
            <mxPoint x="680" y="350" as="targetPoint" />
          </mxGeometry>
        </mxCell>
        <mxCell id="x-XL8PX8UxAsf5zXWhda-55" style="edgeStyle=orthogonalEdgeStyle;rounded=0;orthogonalLoop=1;jettySize=auto;html=1;exitX=0.25;exitY=1;exitDx=0;exitDy=0;entryX=0.5;entryY=0;entryDx=0;entryDy=0;" edge="1" parent="1" source="2uV-hCsgqKCJBiBY5NLh-17" target="2uV-hCsgqKCJBiBY5NLh-10">
          <mxGeometry relative="1" as="geometry">
            <Array as="points">
              <mxPoint x="390" y="460" />
              <mxPoint x="160" y="460" />
            </Array>
          </mxGeometry>
        </mxCell>
        <mxCell id="x-XL8PX8UxAsf5zXWhda-56" style="edgeStyle=orthogonalEdgeStyle;rounded=0;orthogonalLoop=1;jettySize=auto;html=1;exitX=0.5;exitY=1;exitDx=0;exitDy=0;entryX=0.5;entryY=0;entryDx=0;entryDy=0;" edge="1" parent="1" source="2uV-hCsgqKCJBiBY5NLh-17" target="x-XL8PX8UxAsf5zXWhda-2">
          <mxGeometry relative="1" as="geometry">
            <Array as="points">
              <mxPoint x="420" y="460" />
              <mxPoint x="280" y="460" />
            </Array>
          </mxGeometry>
        </mxCell>
        <mxCell id="x-XL8PX8UxAsf5zXWhda-57" style="edgeStyle=orthogonalEdgeStyle;rounded=0;orthogonalLoop=1;jettySize=auto;html=1;exitX=0.75;exitY=1;exitDx=0;exitDy=0;" edge="1" parent="1" source="2uV-hCsgqKCJBiBY5NLh-17" target="x-XL8PX8UxAsf5zXWhda-38">
          <mxGeometry relative="1" as="geometry">
            <Array as="points">
              <mxPoint x="450" y="460" />
              <mxPoint x="400" y="460" />
            </Array>
          </mxGeometry>
        </mxCell>
        <mxCell id="2uV-hCsgqKCJBiBY5NLh-17" value="Load balancer" style="rounded=1;whiteSpace=wrap;html=1;" parent="1" vertex="1">
          <mxGeometry x="360" y="320" width="120" height="60" as="geometry" />
        </mxCell>
        <mxCell id="x-XL8PX8UxAsf5zXWhda-18" value="" style="swimlane;startSize=0;" vertex="1" parent="1">
          <mxGeometry x="40" y="440" width="760" height="480" as="geometry" />
        </mxCell>
        <mxCell id="x-XL8PX8UxAsf5zXWhda-7" value="" style="swimlane;startSize=0;" vertex="1" parent="x-XL8PX8UxAsf5zXWhda-18">
          <mxGeometry x="40" y="280" width="280" height="160" as="geometry" />
        </mxCell>
        <mxCell id="x-XL8PX8UxAsf5zXWhda-78" style="edgeStyle=orthogonalEdgeStyle;rounded=0;orthogonalLoop=1;jettySize=auto;html=1;exitX=1;exitY=0.5;exitDx=0;exitDy=0;entryX=0;entryY=0.5;entryDx=0;entryDy=0;" edge="1" parent="x-XL8PX8UxAsf5zXWhda-7" source="x-XL8PX8UxAsf5zXWhda-8" target="x-XL8PX8UxAsf5zXWhda-9">
          <mxGeometry relative="1" as="geometry" />
        </mxCell>
        <mxCell id="x-XL8PX8UxAsf5zXWhda-79" style="edgeStyle=orthogonalEdgeStyle;rounded=0;orthogonalLoop=1;jettySize=auto;html=1;exitX=0.5;exitY=1;exitDx=0;exitDy=0;entryX=0;entryY=0.5;entryDx=0;entryDy=0;" edge="1" parent="x-XL8PX8UxAsf5zXWhda-7" source="x-XL8PX8UxAsf5zXWhda-8" target="x-XL8PX8UxAsf5zXWhda-26">
          <mxGeometry relative="1" as="geometry" />
        </mxCell>
        <mxCell id="x-XL8PX8UxAsf5zXWhda-8" value="Primary" style="rounded=1;whiteSpace=wrap;html=1;" vertex="1" parent="x-XL8PX8UxAsf5zXWhda-7">
          <mxGeometry x="40" y="40" width="80" height="40" as="geometry" />
        </mxCell>
        <mxCell id="x-XL8PX8UxAsf5zXWhda-9" value="Seondary" style="rounded=1;whiteSpace=wrap;html=1;" vertex="1" parent="x-XL8PX8UxAsf5zXWhda-7">
          <mxGeometry x="160" y="40" width="80" height="40" as="geometry" />
        </mxCell>
        <mxCell id="x-XL8PX8UxAsf5zXWhda-20" value="Database" style="text;html=1;strokeColor=none;fillColor=none;align=center;verticalAlign=middle;whiteSpace=wrap;rounded=0;" vertex="1" parent="x-XL8PX8UxAsf5zXWhda-7">
          <mxGeometry width="60" height="30" as="geometry" />
        </mxCell>
        <mxCell id="x-XL8PX8UxAsf5zXWhda-26" value="Seondary" style="rounded=1;whiteSpace=wrap;html=1;" vertex="1" parent="x-XL8PX8UxAsf5zXWhda-7">
          <mxGeometry x="160" y="100" width="80" height="40" as="geometry" />
        </mxCell>
        <mxCell id="x-XL8PX8UxAsf5zXWhda-80" value="Replicate" style="text;html=1;strokeColor=none;fillColor=none;align=center;verticalAlign=middle;whiteSpace=wrap;rounded=0;" vertex="1" parent="x-XL8PX8UxAsf5zXWhda-7">
          <mxGeometry x="60" y="120" width="60" height="30" as="geometry" />
        </mxCell>
        <mxCell id="x-XL8PX8UxAsf5zXWhda-58" style="edgeStyle=orthogonalEdgeStyle;rounded=0;orthogonalLoop=1;jettySize=auto;html=1;exitX=1;exitY=0.5;exitDx=0;exitDy=0;entryX=0;entryY=0.5;entryDx=0;entryDy=0;" edge="1" parent="x-XL8PX8UxAsf5zXWhda-18" source="x-XL8PX8UxAsf5zXWhda-1" target="x-XL8PX8UxAsf5zXWhda-28">
          <mxGeometry relative="1" as="geometry" />
        </mxCell>
        <mxCell id="x-XL8PX8UxAsf5zXWhda-60" style="edgeStyle=orthogonalEdgeStyle;rounded=0;orthogonalLoop=1;jettySize=auto;html=1;exitX=0.25;exitY=1;exitDx=0;exitDy=0;entryX=0.5;entryY=0;entryDx=0;entryDy=0;" edge="1" parent="x-XL8PX8UxAsf5zXWhda-18" source="x-XL8PX8UxAsf5zXWhda-1" target="x-XL8PX8UxAsf5zXWhda-8">
          <mxGeometry relative="1" as="geometry" />
        </mxCell>
        <mxCell id="x-XL8PX8UxAsf5zXWhda-1" value="" style="swimlane;startSize=0;" vertex="1" parent="x-XL8PX8UxAsf5zXWhda-18">
          <mxGeometry x="40" y="40" width="400" height="120" as="geometry" />
        </mxCell>
        <mxCell id="x-XL8PX8UxAsf5zXWhda-2" value="Server" style="rounded=1;whiteSpace=wrap;html=1;" vertex="1" parent="x-XL8PX8UxAsf5zXWhda-1">
          <mxGeometry x="160" y="40" width="80" height="40" as="geometry" />
        </mxCell>
        <mxCell id="2uV-hCsgqKCJBiBY5NLh-10" value="Server" style="rounded=1;whiteSpace=wrap;html=1;" parent="x-XL8PX8UxAsf5zXWhda-1" vertex="1">
          <mxGeometry x="40" y="40" width="80" height="40" as="geometry" />
        </mxCell>
        <mxCell id="x-XL8PX8UxAsf5zXWhda-38" value="Server" style="rounded=1;whiteSpace=wrap;html=1;" vertex="1" parent="x-XL8PX8UxAsf5zXWhda-1">
          <mxGeometry x="280" y="40" width="80" height="40" as="geometry" />
        </mxCell>
        <mxCell id="x-XL8PX8UxAsf5zXWhda-70" value="10.0.0.1" style="text;html=1;strokeColor=none;fillColor=none;align=center;verticalAlign=middle;whiteSpace=wrap;rounded=0;" vertex="1" parent="x-XL8PX8UxAsf5zXWhda-1">
          <mxGeometry x="80" width="60" height="30" as="geometry" />
        </mxCell>
        <mxCell id="x-XL8PX8UxAsf5zXWhda-71" value="10.0.0.2" style="text;html=1;strokeColor=none;fillColor=none;align=center;verticalAlign=middle;whiteSpace=wrap;rounded=0;" vertex="1" parent="x-XL8PX8UxAsf5zXWhda-1">
          <mxGeometry x="200" width="60" height="30" as="geometry" />
        </mxCell>
        <mxCell id="x-XL8PX8UxAsf5zXWhda-73" value="10.0.0.3" style="text;html=1;strokeColor=none;fillColor=none;align=center;verticalAlign=middle;whiteSpace=wrap;rounded=0;" vertex="1" parent="x-XL8PX8UxAsf5zXWhda-1">
          <mxGeometry x="320" width="60" height="30" as="geometry" />
        </mxCell>
        <mxCell id="x-XL8PX8UxAsf5zXWhda-19" value="Web server" style="text;html=1;strokeColor=none;fillColor=none;align=center;verticalAlign=middle;whiteSpace=wrap;rounded=0;" vertex="1" parent="x-XL8PX8UxAsf5zXWhda-18">
          <mxGeometry x="40" y="40" width="70" height="30" as="geometry" />
        </mxCell>
        <mxCell id="x-XL8PX8UxAsf5zXWhda-59" style="edgeStyle=orthogonalEdgeStyle;rounded=0;orthogonalLoop=1;jettySize=auto;html=1;exitX=0.5;exitY=1;exitDx=0;exitDy=0;entryX=0.5;entryY=0;entryDx=0;entryDy=0;" edge="1" parent="x-XL8PX8UxAsf5zXWhda-18" source="x-XL8PX8UxAsf5zXWhda-28" target="x-XL8PX8UxAsf5zXWhda-34">
          <mxGeometry relative="1" as="geometry" />
        </mxCell>
        <mxCell id="x-XL8PX8UxAsf5zXWhda-28" value="" style="swimlane;startSize=0;" vertex="1" parent="x-XL8PX8UxAsf5zXWhda-18">
          <mxGeometry x="560" y="40" width="160" height="160" as="geometry" />
        </mxCell>
        <mxCell id="x-XL8PX8UxAsf5zXWhda-41" value="Queue" style="rounded=1;whiteSpace=wrap;html=1;" vertex="1" parent="x-XL8PX8UxAsf5zXWhda-28">
          <mxGeometry x="40" y="40" width="80" height="40" as="geometry" />
        </mxCell>
        <mxCell id="x-XL8PX8UxAsf5zXWhda-42" value="Queue" style="rounded=1;whiteSpace=wrap;html=1;" vertex="1" parent="x-XL8PX8UxAsf5zXWhda-28">
          <mxGeometry x="40" y="100" width="80" height="40" as="geometry" />
        </mxCell>
        <mxCell id="x-XL8PX8UxAsf5zXWhda-29" value="" style="swimlane;startSize=0;" vertex="1" parent="x-XL8PX8UxAsf5zXWhda-18">
          <mxGeometry x="360" y="280" width="160" height="160" as="geometry" />
        </mxCell>
        <mxCell id="x-XL8PX8UxAsf5zXWhda-30" value="Cache" style="rounded=1;whiteSpace=wrap;html=1;" vertex="1" parent="x-XL8PX8UxAsf5zXWhda-29">
          <mxGeometry x="40" y="40" width="80" height="40" as="geometry" />
        </mxCell>
        <mxCell id="x-XL8PX8UxAsf5zXWhda-33" value="Cache" style="rounded=1;whiteSpace=wrap;html=1;" vertex="1" parent="x-XL8PX8UxAsf5zXWhda-29">
          <mxGeometry x="40" y="100" width="80" height="40" as="geometry" />
        </mxCell>
        <mxCell id="x-XL8PX8UxAsf5zXWhda-37" value="Cache server" style="text;html=1;strokeColor=none;fillColor=none;align=center;verticalAlign=middle;whiteSpace=wrap;rounded=0;" vertex="1" parent="x-XL8PX8UxAsf5zXWhda-29">
          <mxGeometry width="80" height="30" as="geometry" />
        </mxCell>
        <mxCell id="x-XL8PX8UxAsf5zXWhda-34" value="" style="swimlane;startSize=0;" vertex="1" parent="x-XL8PX8UxAsf5zXWhda-18">
          <mxGeometry x="560" y="280" width="160" height="160" as="geometry" />
        </mxCell>
        <mxCell id="x-XL8PX8UxAsf5zXWhda-35" value="Worker" style="rounded=1;whiteSpace=wrap;html=1;" vertex="1" parent="x-XL8PX8UxAsf5zXWhda-34">
          <mxGeometry x="40" y="40" width="80" height="40" as="geometry" />
        </mxCell>
        <mxCell id="x-XL8PX8UxAsf5zXWhda-36" value="Worker" style="rounded=1;whiteSpace=wrap;html=1;" vertex="1" parent="x-XL8PX8UxAsf5zXWhda-34">
          <mxGeometry x="40" y="100" width="80" height="40" as="geometry" />
        </mxCell>
        <mxCell id="x-XL8PX8UxAsf5zXWhda-39" value="Message queue" style="text;html=1;strokeColor=none;fillColor=none;align=center;verticalAlign=middle;whiteSpace=wrap;rounded=0;" vertex="1" parent="x-XL8PX8UxAsf5zXWhda-18">
          <mxGeometry x="560" y="40" width="90" height="30" as="geometry" />
        </mxCell>
        <mxCell id="x-XL8PX8UxAsf5zXWhda-44" value="Workers" style="text;html=1;strokeColor=none;fillColor=none;align=center;verticalAlign=middle;whiteSpace=wrap;rounded=0;" vertex="1" parent="x-XL8PX8UxAsf5zXWhda-18">
          <mxGeometry x="560" y="280" width="60" height="30" as="geometry" />
        </mxCell>
        <mxCell id="x-XL8PX8UxAsf5zXWhda-63" style="edgeStyle=orthogonalEdgeStyle;rounded=0;orthogonalLoop=1;jettySize=auto;html=1;exitX=1;exitY=0.5;exitDx=0;exitDy=0;entryX=0.75;entryY=1;entryDx=0;entryDy=0;" edge="1" parent="x-XL8PX8UxAsf5zXWhda-18" source="x-XL8PX8UxAsf5zXWhda-9" target="x-XL8PX8UxAsf5zXWhda-1">
          <mxGeometry relative="1" as="geometry" />
        </mxCell>
        <mxCell id="x-XL8PX8UxAsf5zXWhda-64" style="edgeStyle=orthogonalEdgeStyle;rounded=0;orthogonalLoop=1;jettySize=auto;html=1;exitX=1;exitY=0.5;exitDx=0;exitDy=0;entryX=0.75;entryY=1;entryDx=0;entryDy=0;" edge="1" parent="x-XL8PX8UxAsf5zXWhda-18" source="x-XL8PX8UxAsf5zXWhda-26" target="x-XL8PX8UxAsf5zXWhda-1">
          <mxGeometry relative="1" as="geometry">
            <Array as="points">
              <mxPoint x="300" y="400" />
              <mxPoint x="300" y="240" />
              <mxPoint x="340" y="240" />
            </Array>
          </mxGeometry>
        </mxCell>
        <mxCell id="x-XL8PX8UxAsf5zXWhda-76" value="Write" style="text;html=1;strokeColor=none;fillColor=none;align=center;verticalAlign=middle;whiteSpace=wrap;rounded=0;" vertex="1" parent="x-XL8PX8UxAsf5zXWhda-18">
          <mxGeometry x="140" y="200" width="60" height="30" as="geometry" />
        </mxCell>
        <mxCell id="x-XL8PX8UxAsf5zXWhda-77" value="Read" style="text;html=1;strokeColor=none;fillColor=none;align=center;verticalAlign=middle;whiteSpace=wrap;rounded=0;" vertex="1" parent="x-XL8PX8UxAsf5zXWhda-18">
          <mxGeometry x="340" y="200" width="60" height="30" as="geometry" />
        </mxCell>
        <mxCell id="x-XL8PX8UxAsf5zXWhda-45" value="Data center" style="text;html=1;strokeColor=none;fillColor=none;align=center;verticalAlign=middle;whiteSpace=wrap;rounded=0;" vertex="1" parent="1">
          <mxGeometry x="40" y="440" width="80" height="30" as="geometry" />
        </mxCell>
        <mxCell id="x-XL8PX8UxAsf5zXWhda-49" style="edgeStyle=orthogonalEdgeStyle;rounded=0;orthogonalLoop=1;jettySize=auto;html=1;exitX=0.5;exitY=1;exitDx=0;exitDy=0;entryX=0;entryY=0.75;entryDx=0;entryDy=0;" edge="1" parent="1" source="x-XL8PX8UxAsf5zXWhda-47" target="2uV-hCsgqKCJBiBY5NLh-1">
          <mxGeometry relative="1" as="geometry" />
        </mxCell>
        <mxCell id="x-XL8PX8UxAsf5zXWhda-47" value="CDN" style="rounded=1;whiteSpace=wrap;html=1;" vertex="1" parent="1">
          <mxGeometry x="80" y="120" width="120" height="60" as="geometry" />
        </mxCell>
        <mxCell id="x-XL8PX8UxAsf5zXWhda-54" value="To other data center" style="text;html=1;strokeColor=none;fillColor=none;align=center;verticalAlign=middle;whiteSpace=wrap;rounded=0;" vertex="1" parent="1">
          <mxGeometry x="540" y="320" width="120" height="30" as="geometry" />
        </mxCell>
        <mxCell id="x-XL8PX8UxAsf5zXWhda-65" value="FQDN" style="text;html=1;strokeColor=none;fillColor=none;align=center;verticalAlign=middle;whiteSpace=wrap;rounded=0;" vertex="1" parent="1">
          <mxGeometry x="580" y="60" width="60" height="30" as="geometry" />
        </mxCell>
        <mxCell id="x-XL8PX8UxAsf5zXWhda-67" value="Public IP" style="text;html=1;strokeColor=none;fillColor=none;align=center;verticalAlign=middle;whiteSpace=wrap;rounded=0;" vertex="1" parent="1">
          <mxGeometry x="580" y="200" width="60" height="30" as="geometry" />
        </mxCell>
        <mxCell id="x-XL8PX8UxAsf5zXWhda-68" value="Public IP" style="text;html=1;strokeColor=none;fillColor=none;align=center;verticalAlign=middle;whiteSpace=wrap;rounded=0;" vertex="1" parent="1">
          <mxGeometry x="425" y="270" width="60" height="30" as="geometry" />
        </mxCell>
        <mxCell id="x-XL8PX8UxAsf5zXWhda-69" value="Private IP" style="text;html=1;strokeColor=none;fillColor=none;align=center;verticalAlign=middle;whiteSpace=wrap;rounded=0;" vertex="1" parent="1">
          <mxGeometry x="460" y="400" width="60" height="30" as="geometry" />
        </mxCell>
        <mxCell id="x-XL8PX8UxAsf5zXWhda-81" value="Get content" style="text;html=1;strokeColor=none;fillColor=none;align=center;verticalAlign=middle;whiteSpace=wrap;rounded=0;" vertex="1" parent="1">
          <mxGeometry x="180" y="60" width="80" height="30" as="geometry" />
        </mxCell>
        <mxCell id="x-XL8PX8UxAsf5zXWhda-82" value="Return content" style="text;html=1;strokeColor=none;fillColor=none;align=center;verticalAlign=middle;whiteSpace=wrap;rounded=0;" vertex="1" parent="1">
          <mxGeometry x="180" y="200" width="90" height="30" as="geometry" />
        </mxCell>
        <mxCell id="x-XL8PX8UxAsf5zXWhda-91" style="edgeStyle=orthogonalEdgeStyle;rounded=0;orthogonalLoop=1;jettySize=auto;html=1;exitX=0.5;exitY=0;exitDx=0;exitDy=0;" edge="1" parent="1" source="x-XL8PX8UxAsf5zXWhda-84" target="x-XL8PX8UxAsf5zXWhda-18">
          <mxGeometry relative="1" as="geometry" />
        </mxCell>
        <mxCell id="x-XL8PX8UxAsf5zXWhda-84" value="" style="swimlane;startSize=0;" vertex="1" parent="1">
          <mxGeometry x="160" y="960" width="520" height="80" as="geometry" />
        </mxCell>
        <mxCell id="x-XL8PX8UxAsf5zXWhda-85" value="Log" style="rounded=1;whiteSpace=wrap;html=1;" vertex="1" parent="x-XL8PX8UxAsf5zXWhda-84">
          <mxGeometry x="40" y="20" width="80" height="40" as="geometry" />
        </mxCell>
        <mxCell id="x-XL8PX8UxAsf5zXWhda-86" value="Metric" style="rounded=1;whiteSpace=wrap;html=1;" vertex="1" parent="x-XL8PX8UxAsf5zXWhda-84">
          <mxGeometry x="160" y="20" width="80" height="40" as="geometry" />
        </mxCell>
        <mxCell id="x-XL8PX8UxAsf5zXWhda-87" value="Monitor" style="rounded=1;whiteSpace=wrap;html=1;" vertex="1" parent="x-XL8PX8UxAsf5zXWhda-84">
          <mxGeometry x="280" y="20" width="80" height="40" as="geometry" />
        </mxCell>
        <mxCell id="x-XL8PX8UxAsf5zXWhda-88" value="Automate" style="rounded=1;whiteSpace=wrap;html=1;" vertex="1" parent="x-XL8PX8UxAsf5zXWhda-84">
          <mxGeometry x="400" y="20" width="80" height="40" as="geometry" />
        </mxCell>
      </root>
    </mxGraphModel>
  </diagram>
</mxfile>
